<svg width="1140" height="387" viewBox="0 0 1140 387" fill="none" xmlns="http://www.w3.org/2000/svg">
<path d="M162.988 32.9997C136.588 -18.2003 82 5.50013 0 5.50007C-9.66666 112.5 -106.212 300.2 -93.0119 297C-76.5119 293 -99.2472 341 0 341C89.5 341 145.5 294.5 266.5 331.5C387.5 368.5 674.49 292.577 762.988 355.5C871.988 433 1014.5 341 1140 341C1365.5 341 1338.83 113.5 1316.33 74.4996C1293.83 35.4996 1201.5 5.50007 1140 5.50007C1078.5 5.50007 1104.19 159 972.192 74.4996C840.192 -10.0004 695.988 14.9997 553.192 110.5C452.983 177.518 195.988 96.9997 162.988 32.9997Z" fill="#404245"/>
</svg>
