<svg width="104" height="27" viewBox="0 0 104 27" fill="none" xmlns="http://www.w3.org/2000/svg">
<path d="M13.5 0.5H82.5C89.6797 0.5 95.5 6.3203 95.5 13.5C95.5 20.6797 89.6797 26.5 82.5 26.5H13.5C6.3203 26.5 0.5 20.6797 0.5 13.5C0.5 6.3203 6.3203 0.5 13.5 0.5Z" stroke="white"/>
<path d="M26.63 17V10.56H29.24C30.1933 10.56 30.9 10.8133 31.36 11.32C31.82 11.82 32.05 12.6533 32.05 13.82C32.05 14.92 31.8233 15.7267 31.37 16.24C30.9167 16.7467 30.2067 17 29.24 17H26.63ZM27.72 16.16H29.07C29.49 16.16 29.84 16.1 30.12 15.98C30.4 15.8533 30.61 15.62 30.75 15.28C30.89 14.94 30.96 14.4533 30.96 13.82C30.96 13.1867 30.8967 12.6967 30.77 12.35C30.6433 12.0033 30.44 11.76 30.16 11.62C29.8867 11.48 29.5233 11.41 29.07 11.41H27.72V16.16ZM35.3941 17.1C34.5408 17.1 33.9141 16.8867 33.5141 16.46C33.1208 16.0333 32.9241 15.4233 32.9241 14.63C32.9241 13.8367 33.1241 13.2267 33.5241 12.8C33.9241 12.3733 34.5475 12.16 35.3941 12.16C36.2475 12.16 36.8741 12.3733 37.2741 12.8C37.6741 13.2267 37.8741 13.8367 37.8741 14.63C37.8741 15.4233 37.6741 16.0333 37.2741 16.46C36.8808 16.8867 36.2541 17.1 35.3941 17.1ZM35.3941 16.18C35.8941 16.18 36.2475 16.06 36.4541 15.82C36.6675 15.5733 36.7741 15.1767 36.7741 14.63C36.7741 14.0833 36.6675 13.69 36.4541 13.45C36.2475 13.21 35.8941 13.09 35.3941 13.09C34.9008 13.09 34.5475 13.21 34.3341 13.45C34.1275 13.69 34.0241 14.0833 34.0241 14.63C34.0241 15.1767 34.1275 15.5733 34.3341 15.82C34.5475 16.06 34.9008 16.18 35.3941 16.18ZM39.5355 17L38.2855 12.26H39.3755L40.1955 15.71L41.1255 12.84V12.26H41.9555L42.9855 15.71L43.8055 12.26H44.8855L43.6455 17H42.6155L41.6055 13.9L40.5755 17H39.5355ZM45.6925 17V12.26H46.6925L46.7425 12.76C46.9558 12.5933 47.2092 12.4533 47.5025 12.34C47.8025 12.22 48.1325 12.16 48.4925 12.16C49.1058 12.16 49.5525 12.3033 49.8325 12.59C50.1125 12.8767 50.2525 13.3233 50.2525 13.93V17H49.1725V13.98C49.1725 13.6133 49.0958 13.3567 48.9425 13.21C48.7958 13.0633 48.5158 12.99 48.1025 12.99C47.8558 12.99 47.6125 13.04 47.3725 13.14C47.1392 13.24 46.9425 13.37 46.7825 13.53V17H45.6925ZM52.6538 17.1C52.2671 17.1 51.9738 17.0067 51.7738 16.82C51.5738 16.6267 51.4738 16.31 51.4738 15.87V10.26H52.5638V15.77C52.5638 15.9567 52.5971 16.0833 52.6638 16.15C52.7304 16.2167 52.8304 16.25 52.9638 16.25C53.1238 16.25 53.2771 16.23 53.4238 16.19V16.98C53.2971 17.0267 53.1738 17.0567 53.0538 17.07C52.9404 17.09 52.8071 17.1 52.6538 17.1ZM56.5465 17.1C55.6932 17.1 55.0665 16.8867 54.6665 16.46C54.2732 16.0333 54.0765 15.4233 54.0765 14.63C54.0765 13.8367 54.2765 13.2267 54.6765 12.8C55.0765 12.3733 55.6998 12.16 56.5465 12.16C57.3998 12.16 58.0265 12.3733 58.4265 12.8C58.8265 13.2267 59.0265 13.8367 59.0265 14.63C59.0265 15.4233 58.8265 16.0333 58.4265 16.46C58.0332 16.8867 57.4065 17.1 56.5465 17.1ZM56.5465 16.18C57.0465 16.18 57.3998 16.06 57.6065 15.82C57.8198 15.5733 57.9265 15.1767 57.9265 14.63C57.9265 14.0833 57.8198 13.69 57.6065 13.45C57.3998 13.21 57.0465 13.09 56.5465 13.09C56.0532 13.09 55.6998 13.21 55.4865 13.45C55.2798 13.69 55.1765 14.0833 55.1765 14.63C55.1765 15.1767 55.2798 15.5733 55.4865 15.82C55.6998 16.06 56.0532 16.18 56.5465 16.18ZM61.567 17.1C61.267 17.1 60.987 17.0467 60.727 16.94C60.4737 16.8333 60.2704 16.6733 60.117 16.46C59.9637 16.24 59.887 15.97 59.887 15.65C59.887 15.1967 60.0404 14.8333 60.347 14.56C60.6604 14.28 61.1404 14.14 61.787 14.14H63.307V13.93C63.307 13.7033 63.2704 13.5233 63.197 13.39C63.1304 13.2567 63.0037 13.16 62.817 13.1C62.637 13.04 62.3704 13.01 62.017 13.01C61.457 13.01 60.9337 13.0933 60.447 13.26V12.45C60.6604 12.3633 60.9204 12.2933 61.227 12.24C61.5337 12.1867 61.8637 12.16 62.217 12.16C62.9104 12.16 63.437 12.3 63.797 12.58C64.1637 12.86 64.347 13.3167 64.347 13.95V17H63.417L63.347 16.52C63.1537 16.7067 62.9137 16.85 62.627 16.95C62.347 17.05 61.9937 17.1 61.567 17.1ZM61.857 16.32C62.1837 16.32 62.467 16.2667 62.707 16.16C62.9537 16.0467 63.1537 15.8967 63.307 15.71V14.88H61.807C61.487 14.88 61.2537 14.9433 61.107 15.07C60.967 15.19 60.897 15.3767 60.897 15.63C60.897 15.8767 60.9804 16.0533 61.147 16.16C61.3137 16.2667 61.5504 16.32 61.857 16.32ZM67.5158 17.1C67.0891 17.1 66.7124 17.0267 66.3858 16.88C66.0591 16.7333 65.8058 16.49 65.6258 16.15C65.4458 15.81 65.3558 15.3533 65.3558 14.78C65.3558 14.2133 65.4524 13.7367 65.6458 13.35C65.8391 12.9567 66.1058 12.66 66.4458 12.46C66.7924 12.26 67.1824 12.16 67.6158 12.16C67.9024 12.16 68.1558 12.1933 68.3758 12.26C68.6024 12.3267 68.8191 12.43 69.0258 12.57V10.26H70.1158V17H69.1858L69.1158 16.53C68.9024 16.7233 68.6691 16.8667 68.4158 16.96C68.1624 17.0533 67.8624 17.1 67.5158 17.1ZM67.8058 16.28C68.2924 16.28 68.6991 16.1133 69.0258 15.78V13.41C68.7124 13.13 68.3191 12.99 67.8458 12.99C67.3858 12.99 67.0391 13.1433 66.8058 13.45C66.5724 13.7567 66.4558 14.2033 66.4558 14.79C66.4558 15.3567 66.5624 15.7467 66.7758 15.96C66.9958 16.1733 67.3391 16.28 67.8058 16.28ZM76.7008 17.1C75.6408 17.1 74.8374 16.81 74.2908 16.23C73.7508 15.65 73.4808 14.8667 73.4808 13.88C73.4808 13.1733 73.5941 12.5667 73.8208 12.06C74.0541 11.5467 74.4074 11.1533 74.8808 10.88C75.3541 10.6 75.9574 10.46 76.6908 10.46C77.0641 10.46 77.4041 10.49 77.7108 10.55C78.0241 10.6033 78.3141 10.6767 78.5808 10.77V11.72C78.3141 11.6133 78.0274 11.5333 77.7208 11.48C77.4208 11.42 77.1041 11.39 76.7708 11.39C75.9708 11.39 75.4041 11.6033 75.0708 12.03C74.7441 12.4567 74.5808 13.0733 74.5808 13.88C74.5808 14.6333 74.7608 15.2067 75.1208 15.6C75.4808 15.9867 76.0374 16.18 76.7908 16.18C77.0974 16.18 77.4041 16.1567 77.7108 16.11C78.0241 16.0567 78.3174 15.9767 78.5908 15.87V16.83C78.3241 16.9167 78.0341 16.9833 77.7208 17.03C77.4141 17.0767 77.0741 17.1 76.7008 17.1ZM81.6148 17L79.1548 10.56H80.2848L82.2148 15.83L84.1448 10.56H85.2748L82.8348 17H81.6148Z" fill="white"/>
<path fill-rule="evenodd" clip-rule="evenodd" d="M18.5 15.0833V15.9166C20.1108 15.9166 21.4166 14.9839 21.4166 13.8333C21.4166 12.7854 20.3334 11.9181 18.9232 11.7717C18.4271 10.544 16.8425 9.66663 15 9.66663C13.6311 9.66663 12.3802 10.1521 11.6282 10.9376C9.90575 11.0972 8.58331 12.1494 8.58331 13.4166C8.58331 14.6554 9.84465 15.6837 11.5 15.8821V15.0308C10.4936 14.8458 9.74998 14.1932 9.74998 13.4166C9.74998 12.521 10.7413 11.7863 11.9898 11.7513L12.3112 11.7423L12.4721 11.5433C12.99 10.9026 13.9455 10.5 15 10.5C16.4298 10.5 17.6427 11.2401 17.8764 12.2359L17.9597 12.5909L18.4635 12.5836L18.5 12.5833C19.4665 12.5833 20.25 13.1429 20.25 13.8333C20.25 14.5236 19.4665 15.0833 18.5 15.0833ZM14.4166 12.9999V15.6055L13.0791 14.6705L12.2542 15.2472L15 17.1666L17.7458 15.2472L16.9208 14.6705L15.5833 15.6055V12.9999H14.4166Z" fill="white"/>
</svg>
