<svg width="30" height="30" viewBox="0 0 30 30" fill="none" xmlns="http://www.w3.org/2000/svg">
<path fill-rule="evenodd" clip-rule="evenodd" d="M15 0C6.71575 0 0 6.71575 0 15C0 23.2842 6.71575 30 15 30C23.2842 30 30 23.2842 30 15C30 6.71575 23.2842 0 15 0Z" fill="white"/>
<path fill-rule="evenodd" clip-rule="evenodd" d="M14.9718 16.272L8.24699 10.1999V23H7.1235C6.49754 23 6 22.3811 6 21.6025V7.44787C6 7.38862 6.00293 7.33301 6.00848 7.28095C6.02888 7.05888 6.09399 6.84157 6.20868 6.64927C6.5778 6.03038 7.30007 5.89061 7.81366 6.34976L14.9878 12.8382L22.2101 6.26999C22.7077 5.81074 23.4139 5.95051 23.783 6.58937C23.9792 6.91836 24.0394 7.3206 23.9756 7.69429V21.6224C23.9756 22.3811 23.478 23 22.8521 23H21.7286V10.1694L14.9718 16.272Z" fill="#171717"/>
</svg>
