<svg width="112" height="43" viewBox="0 0 112 43" fill="none" xmlns="http://www.w3.org/2000/svg">
<g filter="url(#filter0_d)">
<rect width="96" height="29" rx="14.5" fill="#242424"/>
<path d="M34.7553 20L31.0653 10.34H32.7603L35.6553 18.245L38.5503 10.34H40.2453L36.5853 20H34.7553ZM41.6335 20V10.34H43.2685V20H41.6335ZM48.0888 20.15C46.8388 20.15 45.8338 19.99 45.0738 19.67V18.23C45.5038 18.39 45.9638 18.52 46.4538 18.62C46.9538 18.72 47.4488 18.77 47.9388 18.77C48.7088 18.77 49.2838 18.68 49.6638 18.5C50.0538 18.32 50.2488 17.96 50.2488 17.42C50.2488 17.09 50.1688 16.825 50.0088 16.625C49.8488 16.425 49.5838 16.255 49.2138 16.115C48.8438 15.965 48.3338 15.81 47.6838 15.65C46.6438 15.38 45.9138 15.04 45.4938 14.63C45.0738 14.21 44.8638 13.635 44.8638 12.905C44.8638 12.055 45.1738 11.39 45.7938 10.91C46.4138 10.43 47.3388 10.19 48.5688 10.19C49.1288 10.19 49.6538 10.23 50.1438 10.31C50.6438 10.39 51.0338 10.48 51.3138 10.58V12.02C50.5538 11.73 49.7138 11.585 48.7938 11.585C48.0738 11.585 47.5138 11.68 47.1138 11.87C46.7138 12.06 46.5138 12.405 46.5138 12.905C46.5138 13.195 46.5838 13.43 46.7238 13.61C46.8638 13.79 47.1038 13.945 47.4438 14.075C47.7938 14.205 48.2738 14.35 48.8838 14.51C49.6738 14.71 50.2838 14.95 50.7138 15.23C51.1538 15.5 51.4588 15.82 51.6288 16.19C51.8088 16.55 51.8988 16.96 51.8988 17.42C51.8988 18.27 51.5838 18.94 50.9538 19.43C50.3238 19.91 49.3688 20.15 48.0888 20.15ZM53.4841 20V10.34H55.1191V20H53.4841ZM59.5193 20V11.615H56.4293V10.34H64.2293V11.615H61.1543V20H59.5193Z" fill="white"/>
</g>
<defs>
<filter id="filter0_d" x="0" y="0" width="112" height="43" filterUnits="userSpaceOnUse" color-interpolation-filters="sRGB">
<feFlood flood-opacity="0" result="BackgroundImageFix"/>
<feColorMatrix in="SourceAlpha" type="matrix" values="0 0 0 0 0 0 0 0 0 0 0 0 0 0 0 0 0 0 127 0"/>
<feOffset dx="9" dy="7"/>
<feGaussianBlur stdDeviation="3.5"/>
<feColorMatrix type="matrix" values="0 0 0 0 0 0 0 0 0 0 0 0 0 0 0 0 0 0 0.25 0"/>
<feBlend mode="normal" in2="BackgroundImageFix" result="effect1_dropShadow"/>
<feBlend mode="normal" in="SourceGraphic" in2="effect1_dropShadow" result="shape"/>
</filter>
</defs>
</svg>
