<svg width="30" height="30" viewBox="0 0 30 30" fill="none" xmlns="http://www.w3.org/2000/svg">
<path fill-rule="evenodd" clip-rule="evenodd" d="M6.81188 27.585L1.13471 29.0737L2.65003 23.5404L2.29339 22.9731C0.791868 20.5858 -0.00116213 17.8265 1.27824e-06 14.9933C0.00328301 6.72597 6.73229 0 15.0062 0C19.0127 0.00138861 22.7788 1.56303 25.6108 4.39731C28.4428 7.23159 30.0016 10.9988 30 15.0054C29.9967 23.2734 23.2678 30 15.0003 30H14.9942C12.3026 29.999 9.66264 29.2761 7.35962 27.9099L6.81188 27.585ZM24.0922 19.2964C23.9795 19.1084 23.679 18.9956 23.228 18.7699C22.7771 18.5443 20.5601 17.4539 20.1467 17.3033C19.7334 17.1529 19.4327 17.0778 19.1321 17.5289C18.8316 17.9801 17.9674 18.9956 17.7043 19.2964C17.4413 19.5972 17.1782 19.6349 16.7274 19.4092C16.2765 19.1836 14.8235 18.7077 13.1011 17.1719C11.7606 15.9766 10.8556 14.5005 10.5925 14.0492C10.3295 13.5979 10.5645 13.354 10.7902 13.1293C10.9931 12.9272 11.2412 12.6026 11.4666 12.3395C11.6921 12.0764 11.7672 11.8882 11.9176 11.5876C12.0679 11.2866 11.9927 11.0235 11.88 10.7978C11.7672 10.5722 10.8654 8.3534 10.4897 7.45081C10.1236 6.57184 9.75187 6.69091 9.47509 6.67702C9.21236 6.66383 8.91142 6.66106 8.61084 6.66106C8.31024 6.66106 7.82168 6.77388 7.40836 7.22517C6.99503 7.67646 5.83013 8.76702 5.83013 10.9856C5.83013 13.2044 7.44591 15.3479 7.6714 15.6487C7.89685 15.9497 10.8511 20.5026 15.3746 22.4551C16.4505 22.9196 17.2904 23.197 17.9453 23.4047C19.0255 23.7479 20.0086 23.6994 20.7855 23.5833C21.6519 23.4539 23.4534 22.4929 23.8293 21.44C24.2049 20.3869 24.2049 19.4844 24.0922 19.2964Z" fill="white"/>
</svg>
